<svg width="18" height="14" viewBox="0 0 18 14" fill="none" xmlns="http://www.w3.org/2000/svg">
<path fill-rule="evenodd" clip-rule="evenodd" d="M13.2842 14C13.2842 14 12.7295 13.2833 12.2671 12.65C14.286 12.0334 15.0565 10.6667 15.0565 10.6667C14.4247 11.1167 13.8236 11.4334 13.2842 11.65C12.5137 12 11.774 12.2334 11.0497 12.3667C9.57021 12.6667 8.21404 12.5834 7.05822 12.35C6.17979 12.1667 5.42466 11.9 4.79281 11.6334C4.43836 11.4834 4.05308 11.3001 3.66781 11.0667C3.64469 11.0501 3.62158 11.0376 3.59846 11.0251C3.57534 11.0126 3.55223 11.0001 3.52911 10.9834C3.49829 10.9667 3.48288 10.9501 3.46747 10.9334C3.19007 10.7667 3.03596 10.6501 3.03596 10.6501C3.03596 10.6501 3.77568 11.9834 5.73288 12.6167C5.27055 13.25 4.70034 14 4.70034 14C1.29452 13.8833 0 11.4667 0 11.4667C0 6.10016 2.21918 1.75024 2.21918 1.75024C4.43836 -0.0497231 6.54966 0.000275895 6.54966 0.000275895L6.70377 0.200272C3.92979 1.06692 2.65068 2.38356 2.65068 2.38356C2.65068 2.38356 2.98973 2.18357 3.55993 1.90024C5.2089 1.11692 6.51884 0.900258 7.05822 0.850259L7.09277 0.843943C7.17051 0.829628 7.23948 0.816926 7.32021 0.816926C8.26027 0.683596 9.32363 0.650263 10.4332 0.783594C11.8973 0.966924 13.4692 1.43358 15.0719 2.38356C15.0719 2.38356 13.8545 1.13359 11.2346 0.266937L11.4503 0.000275895C11.4503 0.000275895 13.5616 -0.0497231 15.7808 1.75024C15.7808 1.75024 18 6.10016 18 11.4667C18 11.4667 16.6901 13.8833 13.2842 14ZM6.11815 6.21682C5.23973 6.21682 4.54623 7.05014 4.54623 8.06678C4.54623 9.08343 5.25514 9.91675 6.11815 9.91675C6.99658 9.91675 7.69007 9.08343 7.69007 8.06678C7.70548 7.05014 6.99658 6.21682 6.11815 6.21682ZM10.1712 8.06678C10.1712 7.05014 10.8647 6.21682 11.7432 6.21682C12.6216 6.21682 13.3151 7.05014 13.3151 8.06678C13.3151 9.08343 12.6216 9.91675 11.7432 9.91675C10.8801 9.91675 10.1712 9.08343 10.1712 8.06678Z" fill="white"/>
</svg>
