<svg width="19" height="18" viewBox="0 0 19 18" fill="none" xmlns="http://www.w3.org/2000/svg">
<path d="M1.15234 17.5508C1.29297 17.6914 1.46094 17.7852 1.65625 17.832C1.85156 17.8867 2.04297 17.8867 2.23047 17.832C2.42578 17.7852 2.59766 17.6914 2.74609 17.5508L9.68359 10.6016L16.6445 17.5508C16.8555 17.7617 17.1172 17.8672 17.4297 17.8672C17.7422 17.875 18.0078 17.7695 18.2266 17.5508C18.4453 17.332 18.5547 17.0664 18.5547 16.7539C18.5547 16.4336 18.4492 16.168 18.2383 15.957L11.2773 9.00781L18.2383 2.07031C18.4492 1.85938 18.5547 1.59375 18.5547 1.27344C18.5547 0.953125 18.4453 0.6875 18.2266 0.476562C18.0078 0.265625 17.7422 0.160156 17.4297 0.160156C17.1172 0.160156 16.8555 0.265625 16.6445 0.476562L9.68359 7.42578L2.74609 0.476562C2.59766 0.335938 2.42578 0.242188 2.23047 0.195312C2.04297 0.140625 1.85156 0.136719 1.65625 0.183594C1.46094 0.230469 1.29297 0.328125 1.15234 0.476562C1.01172 0.625 0.917969 0.796875 0.871094 0.992188C0.824219 1.17969 0.824219 1.37109 0.871094 1.56641C0.917969 1.76172 1.01172 1.92969 1.15234 2.07031L8.08984 9.00781L1.15234 15.957C1.01172 16.0977 0.914062 16.2656 0.859375 16.4609C0.8125 16.6562 0.8125 16.8516 0.859375 17.0469C0.90625 17.2422 1.00391 17.4102 1.15234 17.5508Z" fill="url(#paint0_linear_94_596)"/>
<defs>
<linearGradient id="paint0_linear_94_596" x1="22" y1="-7" x2="-9.08361" y2="10.1945" gradientUnits="userSpaceOnUse">
<stop stop-color="#FFB12C"/>
<stop offset="1" stop-color="#F829AB"/>
</linearGradient>
</defs>
</svg>

