<svg width="17" height="17" viewBox="0 0 17 17" fill="none" xmlns="http://www.w3.org/2000/svg">
<path d="M6.49609 16.5234C6.9388 16.5234 7.28385 16.3411 7.53125 15.9766L16.2324 2.33398C16.3236 2.19076 16.3887 2.06055 16.4277 1.94336C16.4668 1.81966 16.4863 1.69922 16.4863 1.58203C16.4863 1.29557 16.3952 1.06445 16.2129 0.888672C16.0371 0.70638 15.806 0.615234 15.5195 0.615234C15.3112 0.615234 15.1387 0.657552 15.002 0.742188C14.8717 0.820312 14.7415 0.957031 14.6113 1.15234L6.45703 14.1211L2.24805 8.66211C2.00716 8.33659 1.71419 8.17383 1.36914 8.17383C1.06966 8.17383 0.825521 8.26823 0.636719 8.45703C0.447917 8.63932 0.353516 8.8737 0.353516 9.16016C0.353516 9.29036 0.376302 9.42057 0.421875 9.55078C0.473958 9.67448 0.555339 9.80143 0.666016 9.93164L5.44141 15.9668C5.74089 16.3379 6.09245 16.5234 6.49609 16.5234Z" fill="#06EF9D"/>
</svg>
